<mxfile host="app.diagrams.net" agent="Mozilla/5.0 (Windows NT 10.0; Win64; x64) AppleWebKit/537.36 (KHTML, like Gecko) Chrome/134.0.0.0 Safari/537.36 Edg/134.0.0.0" version="26.1.3">
  <diagram name="Page-1" id="2RwBSwlChWgLmfvyJ2yR">
    <mxGraphModel dx="1042" dy="573" grid="1" gridSize="10" guides="1" tooltips="1" connect="1" arrows="1" fold="1" page="1" pageScale="1" pageWidth="1100" pageHeight="850" math="0" shadow="0">
      <root>
        <mxCell id="0" />
        <mxCell id="1" parent="0" />
        <mxCell id="ehVqMPbxieoHPZxiJAn3-7" value="Kubernetes" style="rounded=0;whiteSpace=wrap;html=1;strokeColor=#4D4D4D;fontSize=20;fontColor=#4D4D4D;labelPosition=center;verticalLabelPosition=bottom;align=center;verticalAlign=top;" vertex="1" parent="1">
          <mxGeometry x="70" y="10" width="880" height="470" as="geometry" />
        </mxCell>
        <mxCell id="ehVqMPbxieoHPZxiJAn3-6" value="node" style="rounded=0;whiteSpace=wrap;html=1;strokeColor=#4D4D4D;fontSize=20;fontColor=#4D4D4D;labelPosition=center;verticalLabelPosition=bottom;align=center;verticalAlign=top;" vertex="1" parent="1">
          <mxGeometry x="110" y="20" width="790" height="190" as="geometry" />
        </mxCell>
        <mxCell id="ehVqMPbxieoHPZxiJAn3-5" value="victorialogs" style="rounded=0;whiteSpace=wrap;html=1;strokeColor=#9673a6;fontSize=20;labelPosition=center;verticalLabelPosition=bottom;align=center;verticalAlign=top;dashed=1;fillColor=#e1d5e7;" vertex="1" parent="1">
          <mxGeometry x="330" y="50" width="550" height="120" as="geometry" />
        </mxCell>
        <mxCell id="ehVqMPbxieoHPZxiJAn3-1" value="Select" style="rounded=1;whiteSpace=wrap;html=1;strokeColor=#4D4D4D;fontSize=20;fontColor=#4D4D4D;" vertex="1" parent="1">
          <mxGeometry x="716" y="80" width="120" height="60" as="geometry" />
        </mxCell>
        <mxCell id="ehVqMPbxieoHPZxiJAn3-3" style="rounded=0;orthogonalLoop=1;jettySize=auto;html=1;exitX=1;exitY=0.5;exitDx=0;exitDy=0;fontFamily=Helvetica;fontSize=20;fontColor=#4D4D4D;entryX=0;entryY=0.5;entryDx=0;entryDy=0;dashed=1;" edge="1" parent="1" source="ehVqMPbxieoHPZxiJAn3-2" target="ehVqMPbxieoHPZxiJAn3-11">
          <mxGeometry relative="1" as="geometry" />
        </mxCell>
        <mxCell id="ehVqMPbxieoHPZxiJAn3-2" value="promtail" style="rounded=1;whiteSpace=wrap;html=1;strokeColor=#4D4D4D;fontSize=20;fontColor=#4D4D4D;" vertex="1" parent="1">
          <mxGeometry x="160" y="80" width="120" height="60" as="geometry" />
        </mxCell>
        <mxCell id="ehVqMPbxieoHPZxiJAn3-13" style="edgeStyle=orthogonalEdgeStyle;rounded=0;orthogonalLoop=1;jettySize=auto;html=1;exitX=1;exitY=0.5;exitDx=0;exitDy=0;fontFamily=Helvetica;fontSize=20;fontColor=#4D4D4D;" edge="1" parent="1" source="ehVqMPbxieoHPZxiJAn3-4" target="ehVqMPbxieoHPZxiJAn3-1">
          <mxGeometry relative="1" as="geometry" />
        </mxCell>
        <mxCell id="ehVqMPbxieoHPZxiJAn3-4" value="Storage" style="rounded=1;whiteSpace=wrap;html=1;strokeColor=#4D4D4D;fontSize=20;fontColor=#4D4D4D;" vertex="1" parent="1">
          <mxGeometry x="554" y="80" width="120" height="60" as="geometry" />
        </mxCell>
        <mxCell id="ehVqMPbxieoHPZxiJAn3-8" value="node" style="rounded=0;whiteSpace=wrap;html=1;strokeColor=#4D4D4D;fontSize=20;fontColor=#4D4D4D;labelPosition=center;verticalLabelPosition=bottom;align=center;verticalAlign=top;" vertex="1" parent="1">
          <mxGeometry x="110" y="254" width="790" height="180" as="geometry" />
        </mxCell>
        <mxCell id="ehVqMPbxieoHPZxiJAn3-10" style="rounded=0;orthogonalLoop=1;jettySize=auto;html=1;exitX=0.5;exitY=0;exitDx=0;exitDy=0;entryX=0;entryY=0.5;entryDx=0;entryDy=0;fontFamily=Helvetica;fontSize=20;fontColor=#4D4D4D;dashed=1;" edge="1" parent="1" source="ehVqMPbxieoHPZxiJAn3-9" target="ehVqMPbxieoHPZxiJAn3-11">
          <mxGeometry relative="1" as="geometry" />
        </mxCell>
        <mxCell id="ehVqMPbxieoHPZxiJAn3-9" value="promtail" style="rounded=1;whiteSpace=wrap;html=1;strokeColor=#4D4D4D;fontSize=20;fontColor=#4D4D4D;" vertex="1" parent="1">
          <mxGeometry x="160" y="300" width="120" height="60" as="geometry" />
        </mxCell>
        <mxCell id="ehVqMPbxieoHPZxiJAn3-12" style="edgeStyle=orthogonalEdgeStyle;rounded=0;orthogonalLoop=1;jettySize=auto;html=1;exitX=1;exitY=0.5;exitDx=0;exitDy=0;fontFamily=Helvetica;fontSize=20;fontColor=#4D4D4D;" edge="1" parent="1" source="ehVqMPbxieoHPZxiJAn3-11" target="ehVqMPbxieoHPZxiJAn3-4">
          <mxGeometry relative="1" as="geometry" />
        </mxCell>
        <mxCell id="ehVqMPbxieoHPZxiJAn3-11" value="Insert" style="rounded=1;whiteSpace=wrap;html=1;strokeColor=#4D4D4D;fontSize=20;fontColor=#4D4D4D;" vertex="1" parent="1">
          <mxGeometry x="392" y="80" width="120" height="60" as="geometry" />
        </mxCell>
        <mxCell id="ehVqMPbxieoHPZxiJAn3-14" value="" style="aspect=fixed;sketch=0;html=1;dashed=0;whitespace=wrap;verticalLabelPosition=bottom;verticalAlign=top;fillColor=#2875E2;strokeColor=#ffffff;points=[[0.005,0.63,0],[0.1,0.2,0],[0.9,0.2,0],[0.5,0,0],[0.995,0.63,0],[0.72,0.99,0],[0.5,1,0],[0.28,0.99,0]];shape=mxgraph.kubernetes.icon2;kubernetesLabel=1;prIcon=pod;rounded=0;align=center;fontFamily=Helvetica;fontSize=20;fontColor=#4D4D4D;" vertex="1" parent="1">
          <mxGeometry x="490" y="264" width="50" height="48" as="geometry" />
        </mxCell>
        <mxCell id="ehVqMPbxieoHPZxiJAn3-15" value="" style="aspect=fixed;sketch=0;html=1;dashed=0;whitespace=wrap;verticalLabelPosition=bottom;verticalAlign=top;fillColor=#f8cecc;strokeColor=#b85450;points=[[0.005,0.63,0],[0.1,0.2,0],[0.9,0.2,0],[0.5,0,0],[0.995,0.63,0],[0.72,0.99,0],[0.5,1,0],[0.28,0.99,0]];shape=mxgraph.kubernetes.icon2;kubernetesLabel=1;prIcon=pod;rounded=0;align=center;fontFamily=Helvetica;fontSize=20;" vertex="1" parent="1">
          <mxGeometry x="427" y="340" width="50" height="48" as="geometry" />
        </mxCell>
        <mxCell id="ehVqMPbxieoHPZxiJAn3-16" value="" style="aspect=fixed;sketch=0;html=1;dashed=0;whitespace=wrap;verticalLabelPosition=bottom;verticalAlign=top;fillColor=#d5e8d4;strokeColor=#82b366;points=[[0.005,0.63,0],[0.1,0.2,0],[0.9,0.2,0],[0.5,0,0],[0.995,0.63,0],[0.72,0.99,0],[0.5,1,0],[0.28,0.99,0]];shape=mxgraph.kubernetes.icon2;kubernetesLabel=1;prIcon=pod;rounded=0;align=center;fontFamily=Helvetica;fontSize=20;" vertex="1" parent="1">
          <mxGeometry x="570" y="330" width="50" height="48" as="geometry" />
        </mxCell>
        <mxCell id="ehVqMPbxieoHPZxiJAn3-17" style="rounded=0;orthogonalLoop=1;jettySize=auto;html=1;exitX=1;exitY=0.5;exitDx=0;exitDy=0;entryX=0.005;entryY=0.63;entryDx=0;entryDy=0;entryPerimeter=0;fontFamily=Helvetica;fontSize=20;fontColor=#4D4D4D;strokeColor=#4D4D4D;" edge="1" parent="1" source="ehVqMPbxieoHPZxiJAn3-9" target="ehVqMPbxieoHPZxiJAn3-14">
          <mxGeometry relative="1" as="geometry" />
        </mxCell>
        <mxCell id="ehVqMPbxieoHPZxiJAn3-18" value="" style="aspect=fixed;sketch=0;html=1;dashed=0;whitespace=wrap;verticalLabelPosition=bottom;verticalAlign=top;fillColor=#2875E2;strokeColor=#ffffff;points=[[0.005,0.63,0],[0.1,0.2,0],[0.9,0.2,0],[0.5,0,0],[0.995,0.63,0],[0.72,0.99,0],[0.5,1,0],[0.28,0.99,0]];shape=mxgraph.kubernetes.icon2;kubernetesLabel=1;prIcon=pod;rounded=0;align=center;fontFamily=Helvetica;fontSize=20;fontColor=#4D4D4D;" vertex="1" parent="1">
          <mxGeometry x="674" y="312" width="50" height="48" as="geometry" />
        </mxCell>
        <mxCell id="ehVqMPbxieoHPZxiJAn3-19" value="" style="aspect=fixed;sketch=0;html=1;dashed=0;whitespace=wrap;verticalLabelPosition=bottom;verticalAlign=top;fillColor=#2875E2;strokeColor=#ffffff;points=[[0.005,0.63,0],[0.1,0.2,0],[0.9,0.2,0],[0.5,0,0],[0.995,0.63,0],[0.72,0.99,0],[0.5,1,0],[0.28,0.99,0]];shape=mxgraph.kubernetes.icon2;kubernetesLabel=1;prIcon=pod;rounded=0;align=center;fontFamily=Helvetica;fontSize=20;fontColor=#4D4D4D;" vertex="1" parent="1">
          <mxGeometry x="512" y="330" width="50" height="48" as="geometry" />
        </mxCell>
        <mxCell id="ehVqMPbxieoHPZxiJAn3-20" value="" style="aspect=fixed;sketch=0;html=1;dashed=0;whitespace=wrap;verticalLabelPosition=bottom;verticalAlign=top;fillColor=#2875E2;strokeColor=#ffffff;points=[[0.005,0.63,0],[0.1,0.2,0],[0.9,0.2,0],[0.5,0,0],[0.995,0.63,0],[0.72,0.99,0],[0.5,1,0],[0.28,0.99,0]];shape=mxgraph.kubernetes.icon2;kubernetesLabel=1;prIcon=pod;rounded=0;align=center;fontFamily=Helvetica;fontSize=20;fontColor=#4D4D4D;" vertex="1" parent="1">
          <mxGeometry x="716" y="360" width="50" height="48" as="geometry" />
        </mxCell>
        <mxCell id="ehVqMPbxieoHPZxiJAn3-21" value="" style="aspect=fixed;sketch=0;html=1;dashed=0;whitespace=wrap;verticalLabelPosition=bottom;verticalAlign=top;fillColor=#2875E2;strokeColor=#ffffff;points=[[0.005,0.63,0],[0.1,0.2,0],[0.9,0.2,0],[0.5,0,0],[0.995,0.63,0],[0.72,0.99,0],[0.5,1,0],[0.28,0.99,0]];shape=mxgraph.kubernetes.icon2;kubernetesLabel=1;prIcon=pod;rounded=0;align=center;fontFamily=Helvetica;fontSize=20;fontColor=#4D4D4D;" vertex="1" parent="1">
          <mxGeometry x="554" y="274" width="50" height="48" as="geometry" />
        </mxCell>
        <mxCell id="ehVqMPbxieoHPZxiJAn3-22" value="" style="aspect=fixed;sketch=0;html=1;dashed=0;whitespace=wrap;verticalLabelPosition=bottom;verticalAlign=top;fillColor=#f8cecc;strokeColor=#b85450;points=[[0.005,0.63,0],[0.1,0.2,0],[0.9,0.2,0],[0.5,0,0],[0.995,0.63,0],[0.72,0.99,0],[0.5,1,0],[0.28,0.99,0]];shape=mxgraph.kubernetes.icon2;kubernetesLabel=1;prIcon=pod;rounded=0;align=center;fontFamily=Helvetica;fontSize=20;" vertex="1" parent="1">
          <mxGeometry x="616" y="306" width="50" height="48" as="geometry" />
        </mxCell>
        <mxCell id="ehVqMPbxieoHPZxiJAn3-23" value="" style="aspect=fixed;sketch=0;html=1;dashed=0;whitespace=wrap;verticalLabelPosition=bottom;verticalAlign=top;fillColor=#f8cecc;strokeColor=#b85450;points=[[0.005,0.63,0],[0.1,0.2,0],[0.9,0.2,0],[0.5,0,0],[0.995,0.63,0],[0.72,0.99,0],[0.5,1,0],[0.28,0.99,0]];shape=mxgraph.kubernetes.icon2;kubernetesLabel=1;prIcon=pod;rounded=0;align=center;fontFamily=Helvetica;fontSize=20;" vertex="1" parent="1">
          <mxGeometry x="525" y="360" width="50" height="48" as="geometry" />
        </mxCell>
        <mxCell id="ehVqMPbxieoHPZxiJAn3-24" value="" style="aspect=fixed;sketch=0;html=1;dashed=0;whitespace=wrap;verticalLabelPosition=bottom;verticalAlign=top;fillColor=#f8cecc;strokeColor=#b85450;points=[[0.005,0.63,0],[0.1,0.2,0],[0.9,0.2,0],[0.5,0,0],[0.995,0.63,0],[0.72,0.99,0],[0.5,1,0],[0.28,0.99,0]];shape=mxgraph.kubernetes.icon2;kubernetesLabel=1;prIcon=pod;rounded=0;align=center;fontFamily=Helvetica;fontSize=20;" vertex="1" parent="1">
          <mxGeometry x="690" y="258" width="50" height="48" as="geometry" />
        </mxCell>
        <mxCell id="ehVqMPbxieoHPZxiJAn3-25" value="" style="aspect=fixed;sketch=0;html=1;dashed=0;whitespace=wrap;verticalLabelPosition=bottom;verticalAlign=top;fillColor=#d5e8d4;strokeColor=#82b366;points=[[0.005,0.63,0],[0.1,0.2,0],[0.9,0.2,0],[0.5,0,0],[0.995,0.63,0],[0.72,0.99,0],[0.5,1,0],[0.28,0.99,0]];shape=mxgraph.kubernetes.icon2;kubernetesLabel=1;prIcon=pod;rounded=0;align=center;fontFamily=Helvetica;fontSize=20;" vertex="1" parent="1">
          <mxGeometry x="624" y="246" width="50" height="48" as="geometry" />
        </mxCell>
        <mxCell id="ehVqMPbxieoHPZxiJAn3-26" value="" style="aspect=fixed;sketch=0;html=1;dashed=0;whitespace=wrap;verticalLabelPosition=bottom;verticalAlign=top;fillColor=#d5e8d4;strokeColor=#82b366;points=[[0.005,0.63,0],[0.1,0.2,0],[0.9,0.2,0],[0.5,0,0],[0.995,0.63,0],[0.72,0.99,0],[0.5,1,0],[0.28,0.99,0]];shape=mxgraph.kubernetes.icon2;kubernetesLabel=1;prIcon=pod;rounded=0;align=center;fontFamily=Helvetica;fontSize=20;" vertex="1" parent="1">
          <mxGeometry x="786" y="322" width="50" height="48" as="geometry" />
        </mxCell>
        <mxCell id="ehVqMPbxieoHPZxiJAn3-27" value="" style="aspect=fixed;sketch=0;html=1;dashed=0;whitespace=wrap;verticalLabelPosition=bottom;verticalAlign=top;fillColor=#d5e8d4;strokeColor=#82b366;points=[[0.005,0.63,0],[0.1,0.2,0],[0.9,0.2,0],[0.5,0,0],[0.995,0.63,0],[0.72,0.99,0],[0.5,1,0],[0.28,0.99,0]];shape=mxgraph.kubernetes.icon2;kubernetesLabel=1;prIcon=pod;rounded=0;align=center;fontFamily=Helvetica;fontSize=20;" vertex="1" parent="1">
          <mxGeometry x="760" y="260" width="50" height="48" as="geometry" />
        </mxCell>
        <mxCell id="ehVqMPbxieoHPZxiJAn3-28" style="rounded=0;orthogonalLoop=1;jettySize=auto;html=1;exitX=1;exitY=0.5;exitDx=0;exitDy=0;entryX=0.14;entryY=0.575;entryDx=0;entryDy=0;entryPerimeter=0;fontFamily=Helvetica;fontSize=20;fontColor=#4D4D4D;strokeColor=#4D4D4D;align=center;verticalAlign=middle;labelBackgroundColor=default;endArrow=classic;" edge="1" parent="1" source="ehVqMPbxieoHPZxiJAn3-9" target="ehVqMPbxieoHPZxiJAn3-15">
          <mxGeometry relative="1" as="geometry" />
        </mxCell>
        <mxCell id="ehVqMPbxieoHPZxiJAn3-29" value="ds" style="text;html=1;align=center;verticalAlign=middle;whiteSpace=wrap;rounded=0;fontFamily=Helvetica;fontSize=20;fontColor=#4D4D4D;" vertex="1" parent="1">
          <mxGeometry x="180" y="360" width="60" height="30" as="geometry" />
        </mxCell>
        <mxCell id="ehVqMPbxieoHPZxiJAn3-30" value="ds" style="text;html=1;align=center;verticalAlign=middle;whiteSpace=wrap;rounded=0;fontFamily=Helvetica;fontSize=20;fontColor=#4D4D4D;" vertex="1" parent="1">
          <mxGeometry x="190" y="140" width="60" height="30" as="geometry" />
        </mxCell>
        <mxCell id="ehVqMPbxieoHPZxiJAn3-31" value="User" style="verticalLabelPosition=bottom;html=1;verticalAlign=top;align=center;strokeColor=none;fillColor=#00BEF2;shape=mxgraph.azure.user;rounded=0;fontFamily=Helvetica;fontSize=20;fontColor=#4D4D4D;" vertex="1" parent="1">
          <mxGeometry x="1000" y="84" width="47.5" height="50" as="geometry" />
        </mxCell>
        <mxCell id="ehVqMPbxieoHPZxiJAn3-32" style="rounded=0;orthogonalLoop=1;jettySize=auto;html=1;exitX=0.211;exitY=0.52;exitDx=0;exitDy=0;entryX=1;entryY=0.5;entryDx=0;entryDy=0;fontFamily=Helvetica;fontSize=20;fontColor=#4D4D4D;exitPerimeter=0;strokeColor=#4C0099;dashed=1;" edge="1" parent="1" source="ehVqMPbxieoHPZxiJAn3-31" target="ehVqMPbxieoHPZxiJAn3-1">
          <mxGeometry relative="1" as="geometry" />
        </mxCell>
      </root>
    </mxGraphModel>
  </diagram>
</mxfile>
